<svg xmlns="http://www.w3.org/2000/svg" width="120" height="120" viewBox="0 0 120 120" fill="none">
  <!-- Background circle -->
  <circle cx="60" cy="60" r="60" fill="#F0F4FF" />
  
  <!-- Person silhouette -->
  <!-- Head -->
  <circle cx="60" cy="45" r="25" fill="#4A6CF7" />
  
  <!-- Body -->
  <path d="M30 120 C30 85, 90 85, 90 120" fill="#4A6CF7" />
  
  <!-- Face details -->
  <!-- Eyes -->
  <circle cx="50" cy="40" r="3" fill="white" />
  <circle cx="70" cy="40" r="3" fill="white" />
  
  <!-- Smile -->
  <path d="M50 55 C50 60, 70 60, 70 55" stroke="white" stroke-width="2" fill="none" />
  
  <!-- Short hair -->
  <path d="M40 25 C40 15, 80 15, 80 25" fill="#333" />
  <path d="M40 25 C35 30, 35 40, 40 45" fill="#333" />
  <path d="M80 25 C85 30, 85 40, 80 45" fill="#333" />
  
  <!-- Beard -->
  <path d="M45 55 C45 70, 75 70, 75 55" fill="#333" />
  <path d="M60 55 L60 65" stroke="#333" stroke-width="4" />
</svg>