<svg xmlns="http://www.w3.org/2000/svg" width="120" height="120" viewBox="0 0 120 120" fill="none">
  <!-- Background circle -->
  <circle cx="60" cy="60" r="60" fill="#F0F4FF" />
  
  <!-- Person silhouette -->
  <!-- Head -->
  <circle cx="60" cy="45" r="25" fill="#4A6CF7" />
  
  <!-- Body -->
  <path d="M30 120 C30 85, 90 85, 90 120" fill="#4A6CF7" />
  
  <!-- Face details -->
  <!-- Eyes -->
  <circle cx="50" cy="40" r="3" fill="white" />
  <circle cx="70" cy="40" r="3" fill="white" />
  
  <!-- Smile -->
  <path d="M50 55 C50 60, 70 60, 70 55" stroke="white" stroke-width="2" fill="none" />
  
  <!-- Long hair -->
  <path d="M35 45 C25 30, 35 20, 60 20 C85 20, 95 30, 85 45" fill="#333" />
  <path d="M35 45 C30 60, 25 80, 30 90" fill="#333" />
  <path d="M85 45 C90 60, 95 80, 90 90" fill="#333" />
  
  <!-- Earrings -->
  <circle cx="35" cy="45" r="3" fill="white" />
  <circle cx="85" cy="45" r="3" fill="white" />
</svg>