<svg xmlns="http://www.w3.org/2000/svg" width="120" height="120" viewBox="0 0 120 120" fill="none">
  <!-- Background circle -->
  <circle cx="60" cy="60" r="60" fill="#F0F4FF" />
  
  <!-- Person silhouette -->
  <!-- Head -->
  <circle cx="60" cy="45" r="25" fill="#4A6CF7" />
  
  <!-- Body -->
  <path d="M30 120 C30 85, 90 85, 90 120" fill="#4A6CF7" />
  
  <!-- Face details -->
  <!-- Eyes -->
  <circle cx="50" cy="40" r="3" fill="white" />
  <circle cx="70" cy="40" r="3" fill="white" />
  
  <!-- Smile -->
  <path d="M50 55 C50 60, 70 60, 70 55" stroke="white" stroke-width="2" fill="none" />
  
  <!-- Hair -->
  <path d="M40 30 C40 20, 80 20, 80 30" fill="#333" />
  <path d="M40 30 C40 40, 45 45, 45 45" fill="#333" />
  <path d="M80 30 C80 40, 75 45, 75 45" fill="#333" />
  <path d="M45 25 C45 15, 75 15, 75 25" fill="#333" />
  
  <!-- Glasses -->
  <circle cx="50" cy="40" r="8" stroke="white" stroke-width="2" fill="none" />
  <circle cx="70" cy="40" r="8" stroke="white" stroke-width="2" fill="none" />
  <path d="M58 40 L62 40" stroke="white" stroke-width="2" />
  <path d="M42 40 L35 38" stroke="white" stroke-width="2" />
  <path d="M78 40 L85 38" stroke="white" stroke-width="2" />
</svg>