<svg xmlns="http://www.w3.org/2000/svg" width="400" height="300" viewBox="0 0 400 300" fill="none">
  <!-- Background elements -->
  <rect x="0" y="0" width="400" height="300" rx="8" fill="#F0F4FF" />
  <circle cx="350" cy="50" r="30" fill="#E0E8FF" />
  <circle cx="50" cy="250" r="20" fill="#E0E8FF" />
  
  <!-- People working on email design -->
  <!-- Person 1 (sitting at desk) -->
  <g transform="translate(100, 150)">
    <!-- Desk -->
    <rect x="-50" y="30" width="150" height="10" rx="2" fill="#4A6CF7" opacity="0.7" />
    <rect x="-45" y="40" width="10" height="40" fill="#4A6CF7" opacity="0.7" />
    <rect x="85" y="40" width="10" height="40" fill="#4A6CF7" opacity="0.7" />
    
    <!-- Computer -->
    <rect x="-30" y="0" width="60" height="40" rx="2" fill="white" stroke="#4A6CF7" stroke-width="2" />
    <rect x="-25" y="5" width="50" height="30" rx="1" fill="#E0E8FF" />
    <rect x="-10" y="40" width="20" height="5" rx="1" fill="#4A6CF7" />
    
    <!-- Person -->
    <circle cx="0" cy="-30" r="15" fill="#4A6CF7" opacity="0.8" />
    <path d="M-10 -20 C-10 0, 10 0, 10 -20" fill="#4A6CF7" opacity="0.8" />
    <rect x="-15" y="0" width="30" height="20" rx="5" fill="#4A6CF7" opacity="0.8" />
    
    <!-- Arms -->
    <path d="M-15 5 C-30 10, -30 20, -20 25" stroke="#4A6CF7" stroke-width="4" stroke-linecap="round" />
    <path d="M15 5 C30 10, 30 20, 20 25" stroke="#4A6CF7" stroke-width="4" stroke-linecap="round" />
  </g>
  
  <!-- Person 2 (standing with tablet) -->
  <g transform="translate(250, 170)">
    <!-- Person -->
    <circle cx="0" cy="-50" r="15" fill="#4A6CF7" opacity="0.6" />
    <rect x="-10" y="-35" width="20" height="40" rx="5" fill="#4A6CF7" opacity="0.6" />
    <rect x="-15" y="5" width="10" height="30" rx="3" fill="#4A6CF7" opacity="0.6" />
    <rect x="5" y="5" width="10" height="30" rx="3" fill="#4A6CF7" opacity="0.6" />
    
    <!-- Tablet -->
    <g transform="rotate(-10)">
      <rect x="-25" y="-20" width="30" height="40" rx="2" fill="white" stroke="#4A6CF7" stroke-width="2" />
      <rect x="-22" y="-17" width="24" height="34" rx="1" fill="#E0E8FF" />
    </g>
  </g>
  
  <!-- Email design elements floating around -->
  <!-- Element 1: Header -->
  <g transform="translate(50, 80)">
    <rect x="0" y="0" width="80" height="20" rx="4" fill="white" stroke="#4A6CF7" stroke-width="1" />
    <circle cx="10" cy="10" r="5" fill="#4A6CF7" opacity="0.5" />
    <rect x="20" y="7" width="50" height="6" rx="3" fill="#E0E8FF" />
  </g>
  
  <!-- Element 2: Image block -->
  <g transform="translate(300, 120) rotate(10)">
    <rect x="0" y="0" width="60" height="40" rx="4" fill="white" stroke="#4A6CF7" stroke-width="1" />
    <path d="M15 10 L30 30 L0 30 Z" fill="#4A6CF7" opacity="0.3" />
    <circle cx="45" cy="15" r="8" fill="#4A6CF7" opacity="0.3" />
  </g>
  
  <!-- Element 3: Text block -->
  <g transform="translate(180, 70) rotate(-5)">
    <rect x="0" y="0" width="70" height="30" rx="4" fill="white" stroke="#4A6CF7" stroke-width="1" />
    <rect x="10" y="8" width="50" height="4" rx="2" fill="#E0E8FF" />
    <rect x="10" y="16" width="40" height="4" rx="2" fill="#E0E8FF" />
    <rect x="10" y="24" width="45" height="4" rx="2" fill="#E0E8FF" />
  </g>
  
  <!-- Element 4: Button -->
  <g transform="translate(320, 200) rotate(-10)">
    <rect x="0" y="0" width="50" height="15" rx="7.5" fill="#4A6CF7" />
    <rect x="10" y="5" width="30" height="5" rx="2.5" fill="white" />
  </g>
  
  <!-- Connecting lines between people and elements -->
  <path d="M100 120 L90 90" stroke="#4A6CF7" stroke-width="1" stroke-dasharray="3 2" />
  <path d="M250 120 L300 140" stroke="#4A6CF7" stroke-width="1" stroke-dasharray="3 2" />
  <path d="M100 120 L180 85" stroke="#4A6CF7" stroke-width="1" stroke-dasharray="3 2" />
  <path d="M250 120 L320 210" stroke="#4A6CF7" stroke-width="1" stroke-dasharray="3 2" />
  
  <!-- Decorative elements -->
  <circle cx="150" cy="40" r="5" fill="#4A6CF7" opacity="0.3" />
  <circle cx="160" cy="50" r="3" fill="#4A6CF7" opacity="0.3" />
  <circle cx="140" cy="55" r="4" fill="#4A6CF7" opacity="0.3" />
  
  <circle cx="270" cy="40" r="4" fill="#4A6CF7" opacity="0.3" />
  <circle cx="280" cy="50" r="6" fill="#4A6CF7" opacity="0.3" />
  <circle cx="260" cy="55" r="3" fill="#4A6CF7" opacity="0.3" />
</svg>