<svg xmlns="http://www.w3.org/2000/svg" width="80" height="80" viewBox="0 0 80 80" fill="none">
  <!-- Background circle -->
  <circle cx="40" cy="40" r="40" fill="#F0F4FF" />
  
  <!-- Document -->
  <path d="M25 15 L55 15 L55 65 L25 65 Z" fill="white" stroke="#4A6CF7" stroke-width="2" />
  
  <!-- Document fold -->
  <path d="M45 15 L55 25 L45 25 Z" fill="#E0E8FF" stroke="#4A6CF7" stroke-width="2" />
  
  <!-- Document content -->
  <rect x="30" y="30" width="20" height="3" rx="1.5" fill="#4A6CF7" opacity="0.7" />
  <rect x="30" y="36" width="15" height="2" rx="1" fill="#4A6CF7" opacity="0.5" />
  <rect x="30" y="40" width="18" height="2" rx="1" fill="#4A6CF7" opacity="0.5" />
  <rect x="30" y="44" width="12" height="2" rx="1" fill="#4A6CF7" opacity="0.5" />
  
  <!-- Export arrow -->
  <g transform="translate(40, 55)">
    <circle cx="0" cy="0" r="12" fill="#4A6CF7" />
    <path d="M0 -6 L0 4" stroke="white" stroke-width="2" />
    <path d="M-4 0 L0 4 L4 0" stroke="white" stroke-width="2" />
  </g>
  
  <!-- Code brackets -->
  <path d="M15 35 L20 30 L15 25" stroke="#4A6CF7" stroke-width="2" fill="none" />
  <path d="M15 45 L20 50 L15 55" stroke="#4A6CF7" stroke-width="2" fill="none" />
  
  <path d="M65 35 L60 30 L65 25" stroke="#4A6CF7" stroke-width="2" fill="none" />
  <path d="M65 45 L60 50 L65 55" stroke="#4A6CF7" stroke-width="2" fill="none" />
  
  <!-- HTML tag -->
  <rect x="60" y="15" width="15" height="15" rx="2" fill="#E0E8FF" stroke="#4A6CF7" stroke-width="1" />
  <text x="63" y="26" font-family="monospace" font-size="10" fill="#4A6CF7">&lt;/&gt;</text>
</svg>