<svg xmlns="http://www.w3.org/2000/svg" width="80" height="80" viewBox="0 0 80 80" fill="none">
  <!-- Background circle -->
  <circle cx="40" cy="40" r="40" fill="#F0F4FF" />
  
  <!-- Desktop device -->
  <rect x="10" y="20" width="45" height="30" rx="2" fill="white" stroke="#4A6CF7" stroke-width="2" />
  <rect x="15" y="25" width="35" height="20" rx="1" fill="#E0E8FF" />
  <rect x="25" y="50" width="15" height="3" rx="1" fill="#4A6CF7" />
  
  <!-- Tablet device -->
  <rect x="45" y="30" width="20" height="25" rx="2" fill="white" stroke="#4A6CF7" stroke-width="2" />
  <rect x="47" y="33" width="16" height="19" rx="1" fill="#E0E8FF" />
  <circle cx="55" cy="55" r="1.5" fill="#4A6CF7" />
  
  <!-- Mobile device -->
  <rect x="60" y="35" width="10" height="18" rx="2" fill="white" stroke="#4A6CF7" stroke-width="2" />
  <rect x="61.5" y="37" width="7" height="14" rx="1" fill="#E0E8FF" />
  <rect x="63" y="52" width="4" height="1" rx="0.5" fill="#4A6CF7" />
  
  <!-- Content elements for desktop -->
  <rect x="17" y="27" width="20" height="3" rx="1.5" fill="#4A6CF7" opacity="0.7" />
  <rect x="17" y="32" width="15" height="2" rx="1" fill="#4A6CF7" opacity="0.5" />
  <rect x="17" y="36" width="12" height="2" rx="1" fill="#4A6CF7" opacity="0.5" />
  <rect x="17" y="40" width="18" height="2" rx="1" fill="#4A6CF7" opacity="0.5" />
  
  <!-- Content elements for tablet -->
  <rect x="49" y="35" width="12" height="2" rx="1" fill="#4A6CF7" opacity="0.7" />
  <rect x="49" y="39" width="9" height="1.5" rx="0.75" fill="#4A6CF7" opacity="0.5" />
  <rect x="49" y="42" width="7" height="1.5" rx="0.75" fill="#4A6CF7" opacity="0.5" />
  <rect x="49" y="45" width="10" height="1.5" rx="0.75" fill="#4A6CF7" opacity="0.5" />
  
  <!-- Content elements for mobile -->
  <rect x="62.5" y="39" width="5" height="1.5" rx="0.75" fill="#4A6CF7" opacity="0.7" />
  <rect x="62.5" y="42" width="4" height="1" rx="0.5" fill="#4A6CF7" opacity="0.5" />
  <rect x="62.5" y="44" width="3" height="1" rx="0.5" fill="#4A6CF7" opacity="0.5" />
  <rect x="62.5" y="46" width="4" height="1" rx="0.5" fill="#4A6CF7" opacity="0.5" />
  
  <!-- Connecting arrows -->
  <path d="M35 60 C35 65, 55 65, 55 60" stroke="#4A6CF7" stroke-width="1.5" stroke-dasharray="2 1" fill="none" />
  <path d="M55 60 C55 65, 65 65, 65 57" stroke="#4A6CF7" stroke-width="1.5" stroke-dasharray="2 1" fill="none" />
</svg>